<svg id="Layer_1" data-name="Layer 1" xmlns="http://www.w3.org/2000/svg" viewBox="0 0 539.95 385.15"><defs><style>.cls-1{fill:#555;}.cls-2{fill:#dbcbd8;}.cls-3{font-size:84px;fill:#564787;stroke:#564787;stroke-miterlimit:10;stroke-width:2px;font-family:HelveticaNeue-Medium, Helvetica Neue;font-weight:500;letter-spacing:0.09em;}.cls-4{letter-spacing:0em;}.cls-5{letter-spacing:0.09em;}</style></defs><path class="cls-1" d="M583.22,305.75,529,341.8,474.58,378a14.77,14.77,0,0,0-2.31,1.67,7.08,7.08,0,0,0-1.77,3.65l-.93,4c-.59,2.59-1.2,5.19-1.8,7.79q-1.81,7.78-3.69,15.57-3.74,15.57-7.66,31.08-7.86,31-16.5,61.84T421.86,565q-1.17,3.83-2.36,7.64a6,6,0,0,0,4.19,7.38,6.12,6.12,0,0,0,7.38-4.19q11.43-36.72,21.74-73.77t19.49-74.4q5.19-21.06,10-42.2l-2.76,3.59,85.69-57,24-16c2.61-1.74,4-5.38,2.15-8.21-1.67-2.61-5.41-4-8.2-2.16Z" transform="translate(-419.16 -248.27)"/><path class="cls-1" d="M582.38,314l41.37,94.15,11.64,26.5-.6-4.62q-13,36.17-25,72.71t-22.75,73.44Q581,597,575.21,617.91a6,6,0,1,0,11.57,3.19q8.47-30.83,17.71-61.42t19.35-61.24q10-30.35,20.79-60.44l1.32-3.69a8,8,0,0,0,.63-2.73,10.56,10.56,0,0,0-1.32-4.16L642,420.1l-6.56-14.94-13.14-29.88-26.38-60-3.22-7.33c-1.27-2.89-5.7-3.77-8.21-2.16-3,1.93-3.51,5.13-2.15,8.21Z" transform="translate(-419.16 -248.27)"/><path class="cls-1" d="M423.51,580.84l60.92,17.37,60.68,17.3,34.29,9.78a6,6,0,1,0,3.19-11.57l-60.92-17.37L461,579l-34.3-9.78a6,6,0,0,0-3.19,11.58Z" transform="translate(-419.16 -248.27)"/><path class="cls-1" d="M590.37,251.32c-11.64-2.47-24.31-4.84-36-1.12A34.52,34.52,0,0,0,540,259a41.08,41.08,0,0,0-8.51,13.71c-3.8,9.61-4.11,20.31-2.54,30.42a79.51,79.51,0,0,0,11.22,29.64,82.21,82.21,0,0,0,25.93,26,6.06,6.06,0,0,0,8.21-2.16,6.13,6.13,0,0,0-2.15-8.21c-1-.64-2-1.3-3-2-.47-.33-.94-.66-1.4-1l-.61-.45-.61-.46.61.47c0-.17-1.27-1-1.49-1.19l-1.31-1.11c-1-.83-1.91-1.69-2.83-2.57-1.74-1.67-3.41-3.43-5-5.26a23,23,0,0,0-2.3-2.8s.91,1.19.24.3c-.15-.2-.31-.4-.46-.61-.45-.61-.9-1.23-1.34-1.86a76.75,76.75,0,0,1-7.14-12.61c-.1-.23-.2-.47-.31-.7-.53-1.19.41,1,.09.21-.22-.54-.44-1.06-.64-1.6-.46-1.18-.89-2.38-1.29-3.59q-1.14-3.45-1.94-7c-.25-1.11-.47-2.24-.67-3.36-.11-.63-.2-1.26-.3-1.89-.06-.38-.06-1.12.06.46,0-.34-.09-.69-.13-1a56.87,56.87,0,0,1-.35-6.65q0-1.68.12-3.36c0-.53.08-1.06.13-1.59,0-.23.05-.47.07-.7s.21-1.76.07-.61.11-.65.16-.94c.09-.52.18-1,.29-1.56.23-1.14.51-2.27.82-3.4s.64-2.1,1-3.13c.16-.43.33-.85.49-1.28.44-1.13-.48,1.08-.13.33l.42-.93a38.77,38.77,0,0,1,3.36-5.65c.21-.31.7-.8-.33.42.14-.17.27-.35.42-.52.35-.43.71-.85,1.09-1.26a29.46,29.46,0,0,1,2.41-2.33l.52-.43c.91-.76-.94.69-.28.22.41-.3.82-.6,1.25-.88a26.16,26.16,0,0,1,3.3-1.87,3.06,3.06,0,0,1,.75-.35c-.81.33-.91.37-.3.13l.38-.15c.7-.27,1.41-.5,2.13-.72a34.54,34.54,0,0,1,4.17-1c.15,0,1.45-.11.42-.07s.65-.06.84-.07c.68-.07,1.37-.11,2.06-.14,1.53-.07,3.07-.06,4.6,0s3,.18,4.44.34l1.06.12c.41.05,1.73.05.1,0a17,17,0,0,1,2.12.32c3.08.49,6.13,1.11,9.18,1.76s6.63-.9,7.38-4.19c.69-3-.9-6.69-4.19-7.38Z" transform="translate(-419.16 -248.27)"/><path class="cls-1" d="M610.11,357.57c10-3.47,20-7.38,30.32-10,2.5-.64,5-1.14,7.57-1.55,1.13-.18,0,0-.2,0,.3-.06.63-.07.93-.11l1.87-.17c1.15-.09,2.31-.14,3.46-.15s2.14,0,3.21.09c.53,0,1.07.08,1.6.13l.8.08c.77.08-1.33-.2-.21,0a39.91,39.91,0,0,1,6.58,1.58c.5.17,1,.36,1.49.54.82.31-.16-.22-.34-.15a4.05,4.05,0,0,1,.72.33,29.68,29.68,0,0,1,2.79,1.47c.45.26.89.55,1.33.84s1.08.57,1.28.92c-.36-.61-.77-.63-.28-.2l.6.51c.45.4.89.81,1.3,1.24s.66.7,1,1.06c.16.18.31.37.47.56.46.55-.18.19-.28-.36.06.34.63.88.82,1.19s.58.91.85,1.39.46.84.67,1.28l.3.65c.35.7-.45-1.17-.18-.44a29.82,29.82,0,0,1,1,2.9c.12.46.22.92.31,1.39,0,.23.09.47.13.7.1.58-.2.55-.07-.54-.11.94.15,2,.12,3,0,.47-.06.93-.09,1.4-.06.78.22-1.33.07-.55l-.12.69a22.36,22.36,0,0,1-.83,2.87c-.32.93.13-.36.2-.45a4.21,4.21,0,0,0-.31.64c-.23.45-.48.9-.75,1.33-.08.13-.87,1.23-.84,1.26s.82-1,.23-.32c-.24.29-.49.58-.75.86a20.17,20.17,0,0,1-2.07,2c-1.13,1,.9-.62-.31.23-.47.33-.95.65-1.44.94s-1.11.65-1.68.94l-.69.34c-.21.09-1.26.47-.34.16s.05,0-.17.06l-.77.28c-.51.17-1,.32-1.54.45s-.95.2-1.43.3c-.25,0-1,.16,0,0s.07,0-.18,0a19.8,19.8,0,0,1-3.08,0l-.64-.06c-.75-.05,1.5.27.49.05-.46-.1-.92-.18-1.38-.31s-.87-.34-1.31-.43c1.25.25,1.07.5.59.25-.26-.14-.53-.26-.79-.41s-1.5-1-.62-.35-.28-.3-.48-.51a5.56,5.56,0,0,0-.39-.44c1,.81.62.87.24.25a10.28,10.28,0,0,1-.7-1.36,6,6,0,0,0-3.59-2.76,6,6,0,0,0-7.38,4.19,7,7,0,0,0,.61,4.62c4,9.34,16.83,11,25.36,7.85a30.16,30.16,0,0,0,13.28-9.09A24.72,24.72,0,0,0,692,365.24c.06-10.68-6.22-20.54-15.26-25.93-9.76-5.82-21.42-6.48-32.4-4.77a113,113,0,0,0-18.59,5c-6.29,2.13-12.56,4.33-18.84,6.49-3,1-5.24,4.17-4.2,7.39.95,2.93,4.21,5.28,7.39,4.19Z" transform="translate(-419.16 -248.27)"/><path class="cls-1" d="M710.58,332.49c4.71,0,9.22-4.14,9-9a9.16,9.16,0,0,0-9-9c-4.7,0-9.21,4.14-9,9a9.16,9.16,0,0,0,9,9Z" transform="translate(-419.16 -248.27)"/><path class="cls-2" d="M548.7,548.68c-1.45-3.28-4.9-6.15-7.84-8a23.81,23.81,0,0,0-10.66-3.46c-7.35-.76-14.36,3.25-18.43,9.17a18.3,18.3,0,0,0-3.07,9.86,13.67,13.67,0,0,0,1.95,7.46,18.61,18.61,0,0,0,5.41,5.12,90.88,90.88,0,0,0,14.12,7.67c5.58,2.59,11.21,5.12,16.3,8.6,2.61,1.78,6.46,1.54,9.09,0a9.25,9.25,0,0,0,4.46-7.77c.4-7.17-2.4-13.9-3.39-20.89l.32,2.39a34.36,34.36,0,0,1,.13-8.89l-.33,2.39a24.31,24.31,0,0,1,1.31-5.59l-.91,2.15a11.09,11.09,0,0,1,1.36-2.39l-1.41,1.82a10.4,10.4,0,0,1,1.58-1.53l-1.82,1.41a11.16,11.16,0,0,1,1.87-1.07l-2.15.91a13.92,13.92,0,0,1,3.17-.87l-2.39.33a19.12,19.12,0,0,1,4.84,0l-2.39-.32a11.13,11.13,0,0,1,2.35.54l-2.15-.91a7.39,7.39,0,0,1,1,.56l-1.82-1.4a5.56,5.56,0,0,1,.82.79l-1.41-1.83a8.33,8.33,0,0,1,.75,1.29l-.91-2.15a12.53,12.53,0,0,1,.73,2.83l-.32-2.4a16.5,16.5,0,0,1-.07,3.91l.32-2.4a38.18,38.18,0,0,1-2.82,8.91l.91-2.15a93.18,93.18,0,0,1-11.46,19.79l16.77,4.54c.37-3.7.74-7.4,1-11.11s.2-7.23.64-10.81l-.32,2.39a19.14,19.14,0,0,1,1.11-4.41l-.9,2.15a13.54,13.54,0,0,1,1.46-2.63l-1.41,1.82a10.34,10.34,0,0,1,1.83-1.85l-1.83,1.4.31-.22L550.91,546a38.61,38.61,0,0,1-.09,6.8l.32-2.39a15.71,15.71,0,0,1-.94,3.43l.9-2.15a11.63,11.63,0,0,1-1.35,2.31l1.41-1.83a9.79,9.79,0,0,1-1.36,1.37l1.82-1.4a11.54,11.54,0,0,1-2.46,1.41l2.15-.91a29.21,29.21,0,0,1-6.53,1.64l2.39-.33a9.61,9.61,0,0,1-2.21,0l2.39.32a9.27,9.27,0,0,1-2-.62l2.15.91c-1.31-.61-2.53-1.39-3.83-2a47.67,47.67,0,0,0-6.2-2.42c-2.76-.85-5.65-1.35-8.32-2.45l2.15.91a10.6,10.6,0,0,1-2.19-1.27l1.82,1.4a8.68,8.68,0,0,1-1-1l1.41,1.82-.21-.29-5.38,13.22.47-.07-2.39.32a18.66,18.66,0,0,1,4.29.12l-2.39-.32a27.62,27.62,0,0,1,5.4,1.15l-2.15-.91a7.09,7.09,0,0,1,1.49.85l-1.82-1.4a34.52,34.52,0,0,1,3.75,4l3.87,4.37c3.13,3.53,9.58,3.43,12.73,0a9.22,9.22,0,0,0,0-12.73l-4.51-5.09a23.29,23.29,0,0,0-5.64-5.16,21.78,21.78,0,0,0-7.38-2.28,46.37,46.37,0,0,0-5.26-.66,28.15,28.15,0,0,0-5.25.46c-2.67.39-4.85,2.9-5.83,5.22s-1.19,5.74.45,8a17.38,17.38,0,0,0,5.64,5.32,25.82,25.82,0,0,0,5.41,2.17,90,90,0,0,1,9.27,2.81l-2.15-.9c4.16,1.8,7.75,4.46,12.54,4.27a32.59,32.59,0,0,0,12.7-3.28c4.41-2.19,7.24-6.34,8.85-10.85,1.34-3.76,1.27-8,1.07-11.91a9.22,9.22,0,0,0-4.46-7.77c-2.57-1.5-6.55-1.84-9.09,0a20.51,20.51,0,0,0-4.65,4.4,22.11,22.11,0,0,0-3.07,5.68,31.54,31.54,0,0,0-1.71,10.25c-.29,6.18-.76,12.32-1.38,18.48l.32,2.39a6.76,6.76,0,0,0,1.61,3.06,8.59,8.59,0,0,0,4.67,3.23,10.76,10.76,0,0,0,4.79,0c2.4-.55,4-2.28,5.38-4.14a92.77,92.77,0,0,0,10.19-16.91c3.46-7.47,7-15.73,4.78-24.11A14.2,14.2,0,0,0,565.4,529.9a26.6,26.6,0,0,0-12.23.26,18.43,18.43,0,0,0-10.86,8.19c-2.27,3.82-2.84,8.17-3.34,12.49a41.19,41.19,0,0,0,.77,13c.75,3.67,1.86,7.25,2.4,11l-.33-2.39a25.71,25.71,0,0,1,.22,4.88l13.54-7.77c-9.91-6.76-22-9.75-31.55-17.1l1.82,1.41a7,7,0,0,1-1.05-1.06l1.4,1.82a3.88,3.88,0,0,1-.38-.69l.91,2.15a5.88,5.88,0,0,1-.3-1.22l.32,2.39a10.73,10.73,0,0,1,0-1.88l-.32,2.39a11.11,11.11,0,0,1,.61-2.33l-.91,2.15a12.4,12.4,0,0,1,1.37-2.4l-1.4,1.82a12.61,12.61,0,0,1,2.23-2.21l-1.83,1.4a13.72,13.72,0,0,1,2.43-1.41l-2.15.91a12.45,12.45,0,0,1,2.73-.76l-2.39.32a13.28,13.28,0,0,1,3.45,0l-2.4-.32a15.3,15.3,0,0,1,3.34.92l-2.15-.91a17.6,17.6,0,0,1,3.37,1.93l-1.82-1.41a17.63,17.63,0,0,1,2.8,2.73l-1.41-1.82a7.19,7.19,0,0,1,.84,1.41c.85,1.93,3.45,3.61,5.38,4.14a9.19,9.19,0,0,0,6.94-.91,9.06,9.06,0,0,0,4.13-5.38l.32-2.39a8.93,8.93,0,0,0-1.22-4.54Z" transform="translate(-419.16 -248.27)"/><text class="cls-3" transform="translate(199.51 360.04)">Suppl<tspan class="cls-4" x="264.6" y="0">y</tspan><tspan class="cls-5" x="308.28" y="0">.</tspan></text></svg>